<svg width="241" height="94" viewBox="0 0 241 94" fill="none" xmlns="http://www.w3.org/2000/svg">
<path d="M69.2188 24.0312C69.0521 23.7396 69.8438 22.7188 71.5938 20.9688C73.3646 19.1979 74.25 17.8958 74.25 17.0625C74.25 16.4583 74.1458 16.0938 73.9375 15.9688C73.7292 15.8229 73.1354 15.75 72.1562 15.75C70.7396 15.75 68.7604 16.1667 66.2188 17C64.1146 17.6667 60.6562 19.1562 55.8438 21.4688C51.0312 23.7812 46.9167 25.9271 43.5 27.9062C39.6458 30.1354 34.7188 33.3229 28.7188 37.4688C22.7188 41.6146 19.0104 44.3958 17.5938 45.8125C17.0729 46.3333 16.0312 48.5521 14.4688 52.4688C14.0521 53.5312 13.7604 54.2604 13.5938 54.6562C13.4271 55.0521 13.2396 55.6042 13.0312 56.3125C12.8229 57 12.6875 57.4375 12.625 57.625C12.5833 57.7917 12.5833 58.1146 12.625 58.5938C12.6667 59.0521 12.7188 59.3333 12.7812 59.4375C12.8646 59.5417 13.0625 59.8021 13.375 60.2188C13.6875 60.6354 13.9479 60.9375 14.1562 61.125C14.3646 61.2917 14.75 61.6354 15.3125 62.1562C18.7917 65.3646 23.0104 67.1458 27.9688 67.5C32.9479 67.8542 38.9375 66.8125 45.9375 64.375C49.125 63.25 51.1979 62.6042 52.1562 62.4375C52.7604 62.3125 53.125 62.3021 53.25 62.4062C53.3958 62.4896 53.4271 62.7708 53.3438 63.25C53.2812 63.6875 53 64.0833 52.5 64.4375C52.0208 64.7708 51.0938 65.2083 49.7188 65.75C41.8854 68.8542 34.8333 70.2396 28.5625 69.9062C22.3125 69.5521 17.2292 67.4896 13.3125 63.7188L10.875 61.4062L9.59375 64.625C6.73958 71.7083 4.71875 77.6458 3.53125 82.4375C2.34375 87.2292 2.26042 89.8229 3.28125 90.2188C3.48958 90.2812 3.66667 90.4271 3.8125 90.6562C3.95833 90.8854 4.03125 91.125 4.03125 91.375C4.03125 91.7917 3.79167 92.0729 3.3125 92.2188C2.85417 92.3854 2.34375 92.3854 1.78125 92.2188C1.23958 92.0729 0.864583 91.7917 0.65625 91.375C0.239583 90.5833 0.09375 89.2188 0.21875 87.2812C0.34375 85.3438 0.71875 83.2083 1.34375 80.875C1.94792 78.5833 2.96875 75.3854 4.40625 71.2812C5.86458 67.1562 7.05208 64.0625 7.96875 62C8.63542 60.3542 8.95833 58.5417 8.9375 56.5625C8.875 54.8333 9.125 53.2917 9.6875 51.9375C10.2708 50.5833 11.3333 48.9688 12.875 47.0938C13.4375 46.4062 14.0625 45.4479 14.75 44.2188C15.4375 42.9896 16.0104 41.7708 16.4688 40.5625C17.5104 37.9167 19.4792 32.2708 22.375 23.625C25.2917 14.9792 27.1667 9.20833 28 6.3125C28.6875 3.9375 29.2396 2.40625 29.6562 1.71875C30.0729 1.03125 30.5521 0.854167 31.0938 1.1875C31.6146 1.52083 31.5208 2.96875 30.8125 5.53125C30.125 8.07292 28.1354 14.2708 24.8438 24.125C23.2812 28.7917 21.9688 32.7708 20.9062 36.0625C19.8438 39.3333 19.3333 40.9688 19.375 40.9688C19.4583 40.9688 20.6771 40.1042 23.0312 38.375C30.0938 33.1875 37.7812 28.2917 46.0938 23.6875C54.4062 19.0625 61.1354 15.9479 66.2812 14.3438C68.2188 13.7396 69.9688 13.4167 71.5312 13.375C73.0938 13.3125 74.3021 13.5104 75.1562 13.9688C76.0312 14.4271 76.6146 15.0521 76.9062 15.8438C77.1979 16.6354 77.0729 17.6146 76.5312 18.7812C75.9896 19.9271 75.0625 21.1458 73.75 22.4375C72.7708 23.3958 71.8542 24.0312 71 24.3438C70.1458 24.6354 69.5521 24.5312 69.2188 24.0312ZM71.185 57.3438C71.3933 57.8646 71.1954 58.4167 70.5913 59C70.0079 59.5833 68.3725 60.8229 65.685 62.7188C62.6433 64.8854 60.3204 66.2604 58.7163 66.8438C57.1121 67.4271 55.6225 67.4375 54.2475 66.875C52.9975 66.375 52.3413 65.1875 52.2788 63.3125C52.2163 61.4167 52.7579 59.2604 53.9038 56.8438C54.6329 55.3021 55.3621 54.0625 56.0913 53.125C56.8413 52.1667 57.7267 51.5208 58.7475 51.1875C59.81 50.8542 60.6642 51.0417 61.31 51.75C61.9767 52.4375 62.2163 53.25 62.0288 54.1875C61.8413 55.1875 61.1433 56.3438 59.935 57.6562C58.7267 58.9479 57.685 59.5938 56.81 59.5938C56.1225 59.5938 55.6746 59.7083 55.4663 59.9375C55.2579 60.1458 55.0496 60.7604 54.8413 61.7812C54.6538 62.7604 54.7683 63.5625 55.185 64.1875C55.5183 64.6042 55.8204 64.8333 56.0913 64.875C56.3621 64.8958 56.935 64.7812 57.81 64.5312C58.9975 64.1979 61.2996 62.7917 64.7163 60.3125C66.0288 59.3542 67.06 58.625 67.81 58.125C68.56 57.6042 69.185 57.2396 69.685 57.0312C70.185 56.8021 70.5288 56.7292 70.7163 56.8125C70.9038 56.875 71.06 57.0521 71.185 57.3438ZM57.7788 55C57.0288 56.0833 56.7996 56.6979 57.0913 56.8438C57.2996 56.9062 57.6642 56.6979 58.185 56.2188C58.9767 55.4688 59.3725 54.875 59.3725 54.4375C59.3725 53.875 59.185 53.6875 58.81 53.875C58.4975 54.0208 58.1538 54.3958 57.7788 55ZM87.4638 53.9375C88.4221 53.5833 89.1304 53.5208 89.5888 53.75C90.0679 53.9583 90.1721 54.3958 89.9013 55.0625C89.6096 55.8333 88.5992 56.375 86.87 56.6875C85.1617 57 84.0054 56.8542 83.4013 56.25C83.1304 55.9792 82.9221 55.875 82.7763 55.9375C82.4429 56.0625 81.5158 57.0938 79.995 59.0312C79.5992 59.5521 78.7971 60.5938 77.5888 62.1562C75.8179 64.5104 74.5679 66.0417 73.8388 66.75C73.1304 67.4375 72.4533 67.8125 71.8075 67.875C71.2033 67.9375 70.7763 67.9062 70.5263 67.7812C70.2763 67.6354 70.0679 67.3438 69.9013 66.9062C69.4221 65.4688 69.6096 62.6875 70.4638 58.5625C71.0471 55.5833 71.7554 54.0625 72.5888 54C72.7971 54 72.995 54.0938 73.1825 54.2812C73.3908 54.5104 73.4638 54.9583 73.4013 55.625C73.3596 56.2708 73.1929 57.375 72.9013 58.9375C72.7554 59.6667 72.6304 60.2812 72.5263 60.7812C72.4429 61.2812 72.37 61.7604 72.3075 62.2188C72.245 62.6562 72.2033 63.0104 72.1825 63.2812C72.1617 63.5312 72.1721 63.75 72.2138 63.9375C72.2554 64.1042 72.3075 64.1979 72.37 64.2188C72.4533 64.2396 72.5783 64.2083 72.745 64.125C72.9117 64.0208 73.0888 63.875 73.2763 63.6875C73.4638 63.4792 73.7033 63.1979 73.995 62.8438C74.3075 62.4688 74.62 62.0833 74.9325 61.6875C75.2658 61.2708 75.6617 60.75 76.12 60.125C77.1408 58.75 79.1096 56.1146 82.0263 52.2188L84.9325 48.3438C85.2658 47.9062 85.495 47.6771 85.62 47.6562C85.7658 47.6146 86.0158 47.7604 86.37 48.0938C86.7242 48.4479 86.8804 48.7917 86.8388 49.125C86.8179 49.4583 86.5679 50.2083 86.0888 51.375C85.4013 53.0417 85.1617 53.9896 85.37 54.2188C85.62 54.4688 86.3179 54.375 87.4638 53.9375ZM114.618 56.8125C115.18 56.75 115.576 56.9583 115.805 57.4375C116.034 57.9167 115.888 58.4688 115.368 59.0938C114.951 59.5521 114.493 60.0417 113.993 60.5625C113.493 61.0625 112.649 61.8333 111.461 62.875C110.274 63.9167 109.086 64.8542 107.899 65.6875C106.711 66.5 105.305 67.2917 103.68 68.0625C102.055 68.8333 100.482 69.3646 98.9613 69.6562C96.7529 70.0729 94.7946 69.7396 93.0863 68.6562C91.3779 67.5521 90.4196 66.0104 90.2113 64.0312C90.0029 61.9479 90.1279 59.7708 90.5863 57.5C90.9821 55.5833 91.4717 54.1979 92.055 53.3438C92.6383 52.4896 93.2529 52.2708 93.8988 52.6875C94.1904 52.8542 94.3363 53.25 94.3363 53.875C94.3363 54.4792 94.2008 54.8646 93.93 55.0312C93.6383 55.2188 93.305 56.5729 92.93 59.0938C92.68 60.6979 92.555 61.8333 92.555 62.5C92.5758 63.1458 92.7425 63.8438 93.055 64.5938C93.6383 66.0104 94.7738 66.8021 96.4613 66.9688C98.1696 67.1146 99.9508 66.8125 101.805 66.0625C103.68 65.3125 105.399 64.3333 106.961 63.125C107.94 62.3542 109.034 61.4271 110.243 60.3438C111.472 59.2396 112.43 58.3854 113.118 57.7812C113.826 57.1771 114.326 56.8542 114.618 56.8125ZM95.5863 48.875C95.3571 49.1042 95.0654 49.2188 94.7113 49.2188C94.3571 49.2188 94.055 49.1042 93.805 48.875C93.5758 48.625 93.4613 48.3229 93.4613 47.9688C93.4613 47.6146 93.5758 47.3229 93.805 47.0938C94.055 46.8438 94.3571 46.7188 94.7113 46.7188C95.0654 46.7188 95.3571 46.8438 95.5863 47.0938C95.8363 47.3229 95.9613 47.6146 95.9613 47.9688C95.9613 48.3229 95.8363 48.625 95.5863 48.875ZM140.177 57.4375C140.469 57.3125 140.75 57.3542 141.021 57.5625C141.313 57.7708 141.469 58.0833 141.49 58.5C141.532 58.8958 141.365 59.3646 140.99 59.9062C140.427 60.6562 139.344 61.6875 137.74 63C136.157 64.3125 135.084 65.0938 134.521 65.3438C132.313 66.2604 130.365 66.3021 128.677 65.4688C127.907 65.0938 127.24 64.3854 126.677 63.3438C126.136 62.3021 125.75 61.3646 125.521 60.5312C125.292 59.6771 125.157 59.25 125.115 59.25C124.761 59.25 124.146 59.7083 123.271 60.625C122.396 61.5417 121.605 62.5521 120.896 63.6562C119 66.6562 117.48 68.2604 116.334 68.4688C115.771 68.5729 115.375 68.3021 115.146 67.6562C115 67.3021 115.198 65.375 115.74 61.875C116.282 58.375 116.823 55.5104 117.365 53.2812C117.615 52.3438 117.969 51.6875 118.427 51.3125C118.886 50.9375 119.323 50.9479 119.74 51.3438C120.032 51.6354 119.865 53.5312 119.24 57.0312C118.594 60.5729 118.271 62.4167 118.271 62.5625C118.271 62.6458 118.459 62.4583 118.834 62C119.084 61.7083 119.375 61.3333 119.709 60.875C120.625 59.625 121.73 58.5521 123.021 57.6562C124.334 56.7396 125.355 56.3333 126.084 56.4375C126.542 56.5 126.886 56.7083 127.115 57.0625C127.344 57.4167 127.594 58.1458 127.865 59.25C128.573 62.0833 129.875 63.5 131.771 63.5C132.521 63.5 133.375 63.1979 134.334 62.5938C135.292 61.9896 136.136 61.3333 136.865 60.625C137.594 59.8958 138.282 59.1979 138.927 58.5312C139.594 57.8646 140.011 57.5 140.177 57.4375ZM207.829 71.8125C207.579 71.9167 206.485 72.0625 204.548 72.25C202.631 72.4167 199.891 72.8333 196.329 73.5C192.766 74.1458 189.058 75.0729 185.204 76.2812C180.558 77.7396 176.308 79.6354 172.454 81.9688C168.62 84.3229 165.339 86.9792 162.61 89.9375C161.214 91.4792 160.298 92.3958 159.86 92.6875C159.443 93 159.016 93.0104 158.579 92.7188C158.287 92.5312 158.131 92.3229 158.11 92.0938C158.11 91.8646 158.214 91.4792 158.423 90.9375C159.235 88.9167 160.975 84.8333 163.641 78.6875C169.475 65.0208 173.391 55.5833 175.391 50.375C177.412 45.1667 179.412 39.25 181.391 32.625C183.016 27.1667 183.777 24.3333 183.673 24.125C183.631 24.0208 183.443 24.2188 183.11 24.7188C183.089 24.7396 183.068 24.7604 183.048 24.7812C182.61 25.4062 182.131 25.6667 181.61 25.5625C181.11 25.4583 180.86 25.0417 180.86 24.3125C180.86 24.0417 181.068 23.4792 181.485 22.625C181.923 21.75 182.443 20.8438 183.048 19.9062C184.527 17.4479 185.589 15.3542 186.235 13.625C186.964 11.7708 187.61 10.8438 188.173 10.8438C188.735 10.8438 189.12 11.0104 189.329 11.3438C189.62 11.8021 188.6 16.2083 186.266 24.5625C183.954 32.8958 181.756 40.0521 179.673 46.0312C178.027 50.7396 175.902 56.1458 173.298 62.25C167.027 77.1458 163.891 84.6667 163.891 84.8125C163.891 84.8542 164.048 84.7708 164.36 84.5625C164.673 84.3542 165.11 84.0417 165.673 83.625C166.256 83.2292 166.85 82.7917 167.454 82.3125C170.35 80.1458 174.568 77.9688 180.11 75.7812C185.673 73.5938 190.204 72.1667 193.704 71.5C195.537 71.1458 197.506 70.8333 199.61 70.5625C201.714 70.2708 203.527 70.0417 205.048 69.875C206.589 69.7083 207.402 69.6146 207.485 69.5938C208.006 69.4896 208.381 69.5938 208.61 69.9062C208.839 70.1979 208.87 70.5417 208.704 70.9375C208.558 71.3333 208.266 71.625 207.829 71.8125ZM217.826 60.125C219.868 57.9167 221.087 57.125 221.482 57.75C221.607 57.9583 221.67 58.3021 221.67 58.7812C221.67 59.2604 221.16 60.0938 220.139 61.2812C219.139 62.4688 218.035 63.5625 216.826 64.5625C215.639 65.5417 214.805 66.0312 214.326 66.0312C213.014 66.0312 212.16 65.4688 211.764 64.3438C211.368 63.2188 211.451 61.625 212.014 59.5625C212.68 57.2292 212.441 56.9479 211.295 58.7188C211.024 59.1354 210.712 59.6562 210.357 60.2812C208.128 64.2812 206.368 66.625 205.076 67.3125C204.451 67.6667 204.024 67.8542 203.795 67.875C203.587 67.875 203.139 67.7396 202.451 67.4688C201.722 67.1771 201.253 66.5521 201.045 65.5938C200.837 64.6146 200.837 63.0104 201.045 60.7812C201.524 55.3229 202.295 51.8125 203.357 50.25C203.837 49.5417 204.316 49.4271 204.795 49.9062C205.191 50.3021 205.128 51.7604 204.607 54.2812C204.232 56.0104 203.93 57.7292 203.701 59.4375C203.472 61.1458 203.357 62.4896 203.357 63.4688C203.357 64.4271 203.462 64.9583 203.67 65.0625C204.482 65.0625 206.41 62.3542 209.451 56.9375C210.826 54.5208 211.972 52.7708 212.889 51.6875C213.805 50.5833 214.618 50.0312 215.326 50.0312C216.118 50.0312 216.545 50.5104 216.607 51.4688C216.67 52.4271 216.368 53.9688 215.701 56.0938C214.43 60.2604 213.941 62.5625 214.232 63C214.503 63.3958 215.472 62.6875 217.139 60.875C217.347 60.6458 217.576 60.3958 217.826 60.125ZM239.324 55.9688C239.74 55.8646 240.022 55.9688 240.167 56.2812C240.334 56.5938 240.355 56.9583 240.23 57.375C240.126 57.7917 239.938 58.0833 239.667 58.25C239.459 58.375 239.136 58.4896 238.699 58.5938C238.261 58.6979 237.49 58.9375 236.386 59.3125C235.303 59.6875 233.99 60.2083 232.449 60.875C230.178 61.8542 228.647 62.5938 227.855 63.0938C227.084 63.5729 226.397 64.2396 225.792 65.0938C224.813 66.4688 223.813 67.375 222.792 67.8125C221.792 68.2292 220.834 68.1562 219.917 67.5938C219.334 67.2188 218.917 66.7604 218.667 66.2188C218.417 65.6771 218.334 65.1458 218.417 64.625C218.501 64.0833 218.584 63.6667 218.667 63.375C218.772 63.0833 218.876 62.8438 218.98 62.6562C219.188 62.3021 219.47 61.9583 219.824 61.625C220.178 61.2708 220.501 61.0312 220.792 60.9062C221.522 60.6146 221.886 60.1042 221.886 59.375C221.907 58.5833 222.417 57.3542 223.417 55.6875C224.438 54.0208 225.355 52.8958 226.167 52.3125C227.292 51.5 228.209 51.0625 228.917 51C229.647 50.9375 230.272 51.2083 230.792 51.8125C231.105 52.1667 231.313 52.4479 231.417 52.6562C231.542 52.8438 231.636 53.2083 231.699 53.75C231.761 54.2917 231.678 54.9375 231.449 55.6875C231.345 56.1667 231.188 56.6667 230.98 57.1875C230.792 57.7083 230.636 58.1146 230.511 58.4062C230.386 58.6979 230.324 58.8542 230.324 58.875C230.345 58.8958 231.011 58.6875 232.324 58.25C233.636 57.8125 235.042 57.3438 236.542 56.8438C238.063 56.3438 238.99 56.0521 239.324 55.9688ZM222.824 64.625C223.24 64.1875 223.49 63.8958 223.574 63.75C223.657 63.6042 223.667 63.4792 223.605 63.375C223.542 63.2708 223.324 63.125 222.949 62.9375C222.553 62.7083 222.251 62.625 222.042 62.6875C221.855 62.7292 221.657 62.9479 221.449 63.3438C221.261 63.7188 221.115 64.0938 221.011 64.4688C220.928 64.8438 220.907 65.1562 220.949 65.4062C221.011 65.6562 221.136 65.7812 221.324 65.7812C221.636 65.7812 222.136 65.3958 222.824 64.625ZM227.199 58.4062C228.178 56.7188 228.667 55.5104 228.667 54.7812C228.667 54.3021 228.615 54.0312 228.511 53.9688C228.407 53.9062 228.147 54 227.73 54.25C227.188 54.6042 226.48 55.5312 225.605 57.0312C224.73 58.5312 224.292 59.5833 224.292 60.1875C224.292 60.9167 224.563 61.1458 225.105 60.875C225.751 60.5625 226.449 59.7396 227.199 58.4062Z" fill="#AAAAAA"/>
</svg>
